# xmcd
# Copyright (C) 1995-1998 Ti Kan
#
# Track frame offsets:
#       150
#       7966
#       18594
#       52082
#       58407
#       82192
#       100896
#       124961
#       138748
#       157700
#       173276
#       190301
#       214514
#       229263
#       237078
#
# Disc length: 3288 seconds
#
# Revision: 0
# Processed by: cddbd v1.5.2PL0 Copyright (c) Steve Scherf et al.
# Submitted via: CD-Transfer v1.0
#
DISCID=c90cd60f
DTITLE=Mister Comp 3 - Mister Comp 3
DYEAR=2005
DGENRE=
TTITLE0=Big Bear
TTITLE1=Travelling Thru Time
TTITLE2=Misses Records
TTITLE3=Corematics
TTITLE4=Burning (Inside)
TTITLE5=The World's Fair
TTITLE6=Neuer Indianer-Spielplatz Im Grünzug
TTITLE7=Contemporary Design
TTITLE8=Don't Stop Believin
TTITLE9=The Sneaking Around Music
TTITLE10=Anaesthesia
TTITLE11=The Iron Breathing Bugs
TTITLE12=Right Out
TTITLE13=Cool Tall Buildings
TTITLE14=Nude Bombs
EXTD=
EXTT0=
EXTT1=
EXTT2=
EXTT3=
EXTT4=
EXTT5=
EXTT6=
EXTT7=
EXTT8=
EXTT9=
EXTT10=
EXTT11=
EXTT12=
EXTT13=
EXTT14=
PLAYORDER=
